<svg xmlns="http://www.w3.org/2000/svg" width="32" height="32" viewBox="0 0 32 32">
  <g id="nssLOGO-32" transform="translate(-541.667 -422)">
    <path id="路径_71" data-name="路径 71" d="M555.942,422.027l1.361.138a5.19,5.19,0,0,0,1.053,0l1.361-.138a5.231,5.231,0,0,1,3.461.875l1.36.921a5.268,5.268,0,0,0,.97.518l1.264.514a5.326,5.326,0,0,1,2.87,2.8l.236.54a5.371,5.371,0,0,0,1.093,1.616l.4.4a5.412,5.412,0,0,1,1.55,3.8v.885a5.442,5.442,0,0,0,.186,1.413l.378,1.408a5.442,5.442,0,0,1-.479,4.021l-.415.759a5.423,5.423,0,0,0-.58,1.647l-.15.839a5.365,5.365,0,0,1-2.636,3.733l-.419.237a5.3,5.3,0,0,0-1.385,1.127l-.841.96a5.256,5.256,0,0,1-3.954,1.8h0a5.222,5.222,0,0,0-1.965.384l-.951.386a5.217,5.217,0,0,1-3.773.061l-1.375-.508a5.224,5.224,0,0,0-1.807-.323h-.087a5.257,5.257,0,0,1-3.954-1.8l-.933-1.066a5.323,5.323,0,0,0-1.15-.986l-.682-.433a5.358,5.358,0,0,1-2.263-3.011l-.456-1.542a5.4,5.4,0,0,0-.251-.679l-.831-1.856a5.445,5.445,0,0,1-.137-4.108l.025-.068a5.451,5.451,0,0,0,.337-1.885v-1.22a5.417,5.417,0,0,1,1.309-3.536l.8-.932a5.387,5.387,0,0,0,.853-1.355l.27-.617a5.321,5.321,0,0,1,3.026-2.865l1.438-.531a5.268,5.268,0,0,0,1.126-.579l1.289-.873A5.232,5.232,0,0,1,555.942,422.027Z" transform="translate(0)" fill="#3d72e4"/>
    <g id="路径_72" data-name="路径 72" transform="translate(-2 -2)" fill="none" stroke-miterlimit="10">
      <path d="M558.05,425.025l1.275.129a4.876,4.876,0,0,0,.987,0l1.275-.129a4.9,4.9,0,0,1,3.245.82l1.275.863a4.95,4.95,0,0,0,.909.486l1.185.481a4.994,4.994,0,0,1,2.69,2.63l.222.506a5.036,5.036,0,0,0,1.025,1.515l.371.377a5.073,5.073,0,0,1,1.453,3.56v.83a5.116,5.116,0,0,0,.175,1.324l.355,1.32a5.1,5.1,0,0,1-.45,3.77l-.39.712a5.088,5.088,0,0,0-.544,1.544l-.141.787a5.032,5.032,0,0,1-2.471,3.5l-.393.222a4.979,4.979,0,0,0-1.3,1.056l-.788.9a4.927,4.927,0,0,1-3.707,1.69h0a4.9,4.9,0,0,0-1.842.36l-.891.362a4.89,4.89,0,0,1-3.537.057l-1.289-.476a4.894,4.894,0,0,0-1.7-.3h-.081a4.928,4.928,0,0,1-3.707-1.69l-.875-1a4.992,4.992,0,0,0-1.078-.924l-.639-.405a5.028,5.028,0,0,1-2.122-2.823l-.427-1.446a5.049,5.049,0,0,0-.235-.637l-.779-1.74a5.1,5.1,0,0,1-.129-3.851l.024-.064a5.1,5.1,0,0,0,.316-1.767v-1.144a5.079,5.079,0,0,1,1.227-3.315l.753-.874a5.036,5.036,0,0,0,.8-1.271l.253-.578a4.99,4.99,0,0,1,2.837-2.687l1.348-.5a4.909,4.909,0,0,0,1.056-.543l1.209-.818A4.9,4.9,0,0,1,558.05,425.025Z" stroke="none"/>
      <path d="M 557.556640625 425.5004272460938 C 556.67431640625 425.5004272460938 555.8200073242188 425.7630615234375 555.0858764648438 426.2600402832031 L 553.877197265625 427.0775451660156 C 553.514892578125 427.3232116699219 553.1234130859375 427.5243835449219 552.7138061523438 427.6754455566406 L 551.3656005859375 428.1730346679688 C 550.2333984375 428.5909729003906 549.3031616210938 429.4722900390625 548.8132934570313 430.5910339355469 L 548.56005859375 431.1694030761719 C 548.3370361328125 431.6785278320313 548.0411376953125 432.1484069824219 547.6809692382813 432.5656433105469 L 546.9276733398438 433.4398498535156 C 546.2146606445313 434.26708984375 545.8219604492188 435.3284606933594 545.8219604492188 436.4284057617188 L 545.8219604492188 437.5720825195313 C 545.8219604492188 438.2375793457031 545.7052612304688 438.8905944824219 545.4752807617188 439.5124816894531 L 545.4515380859375 439.5769348144531 C 545.031982421875 440.71240234375 545.0731811523438 441.9458923339844 545.5675048828125 443.0501403808594 L 546.3463745117188 444.7897644042969 C 546.4483642578125 445.0174560546875 546.5354614257813 445.2528991699219 546.6050415039063 445.4892272949219 L 547.0321655273438 446.9347534179688 C 547.3441162109375 447.9901428222656 548.0226440429688 448.8930053710938 548.942626953125 449.4769592285156 L 549.581787109375 449.8823852539063 C 550.023193359375 450.1626586914063 550.42236328125 450.5047912597656 550.7684326171875 450.8995361328125 L 551.6436767578125 451.8992004394531 C 552.4891967773438 452.8646850585938 553.7031860351563 453.4183959960938 554.974365234375 453.4183959960938 L 555.0557250976563 453.4183959960938 C 555.6951904296875 453.4183959960938 556.3237915039063 453.5307312011719 556.9239501953125 453.7522888183594 L 558.2133178710938 454.2282104492188 C 558.7024536132813 454.4088439941406 559.2142944335938 454.5004272460938 559.7347412109375 454.5004272460938 C 560.3037109375 454.5004272460938 560.8601684570313 454.3916015625 561.3886108398438 454.1770324707031 L 562.280029296875 453.8151550292969 C 562.9286499023438 453.5518798828125 563.6116943359375 453.4183959960938 564.3101196289063 453.4183959960938 C 565.5813598632813 453.4183959960938 566.7953491210938 452.8646850585938 567.6408081054688 451.8993225097656 L 568.4291381835938 450.9987182617188 C 568.8385620117188 450.5314331054688 569.3192138671875 450.1405029296875 569.8576049804688 449.8368225097656 L 570.251220703125 449.6147155761719 C 571.4244384765625 448.9530944824219 572.2353515625 447.8038940429688 572.4759521484375 446.4621276855469 L 572.6165771484375 445.6749267578125 C 572.7235717773438 445.0787048339844 572.9246826171875 444.5080871582031 573.2142944335938 443.9789733886719 L 573.6039428710938 443.2668762207031 C 574.1741943359375 442.2251281738281 574.3181762695313 441.0177307128906 574.00927734375 439.8672485351563 L 573.6542358398438 438.5468139648438 C 573.527099609375 438.0723571777344 573.4625854492188 437.5831604003906 573.4625854492188 437.0928955078125 L 573.4625854492188 436.2630004882813 C 573.4625854492188 435.0682067871094 572.9855346679688 433.8987121582031 572.1536865234375 433.0543823242188 L 571.7824096679688 432.677490234375 C 571.3068237304688 432.1945495605469 570.9276123046875 431.6340942382813 570.6553344726563 431.0118103027344 L 570.4336547851563 430.5055541992188 C 569.958251953125 429.419921875 569.0986938476563 428.5793762207031 568.0133056640625 428.1387329101563 L 566.8280639648438 427.657470703125 C 566.4771118164063 427.5146789550781 566.140380859375 427.3348388671875 565.8270874023438 427.1228637695313 L 564.55224609375 426.260009765625 C 563.8177490234375 425.7630615234375 562.9633178710938 425.5003967285156 562.081298828125 425.5004272460938 C 561.9339599609375 425.5004272460938 561.784912109375 425.5079650878906 561.6383666992188 425.5228271484375 L 560.3631591796875 425.6522216796875 C 560.1830444335938 425.6705322265625 560 425.6798095703125 559.819091796875 425.6798095703125 C 559.6381225585938 425.6798095703125 559.455078125 425.6705322265625 559.2750854492188 425.6522216796875 L 557.9996948242188 425.5228271484375 C 557.85302734375 425.5079650878906 557.7039794921875 425.5004272460938 557.556640625 425.5004272460938 M 557.556640625 425.0004272460938 C 557.7208862304688 425.0004272460938 557.885498046875 425.0086975097656 558.0501708984375 425.025390625 L 559.3255615234375 425.15478515625 C 559.4896240234375 425.1714782714844 559.6543579101563 425.1798095703125 559.8190307617188 425.1798095703125 C 559.9837646484375 425.1798095703125 560.1484985351563 425.1714782714844 560.3125610351563 425.15478515625 L 561.587890625 425.025390625 C 561.75244140625 425.0086975097656 561.9171142578125 425.0004272460938 562.081298828125 425.0004272460938 C 563.056640625 425.0003967285156 564.0145263671875 425.2925109863281 564.8324584960938 425.8458862304688 L 566.1073608398438 426.7088012695313 C 566.393310546875 426.9022827148438 566.6976928710938 427.0646362304688 567.0164794921875 427.1943359375 L 568.201416015625 427.6754760742188 C 569.4013061523438 428.16259765625 570.3666381835938 429.1060791015625 570.8916625976563 430.3049926757813 L 571.1133422851563 430.811279296875 C 571.3604736328125 431.3760986328125 571.7080688476563 431.889404296875 572.138671875 432.32666015625 L 572.5098876953125 432.7034912109375 C 573.4398193359375 433.6473999023438 573.9625854492188 434.9279174804688 573.9625854492188 436.2630004882813 L 573.9625854492188 437.0928955078125 C 573.9625854492188 437.5402221679688 574.021484375 437.9856567382813 574.13720703125 438.4173583984375 L 574.4921264648438 439.7374267578125 C 574.83251953125 441.0053100585938 574.6713256835938 442.3583374023438 574.0425415039063 443.5069580078125 L 573.6528930664063 444.218994140625 C 573.3895263671875 444.7001953125 573.2058715820313 445.2218017578125 573.1087036132813 445.7632446289063 L 572.9681396484375 446.550048828125 C 572.7021484375 448.033447265625 571.7954711914063 449.31787109375 570.496826171875 450.0502319335938 L 570.1033325195313 450.2722778320313 C 569.615234375 450.547607421875 569.1764526367188 450.904541015625 568.80517578125 451.3282470703125 L 568.0170288085938 452.2286376953125 C 567.0757446289063 453.303466796875 565.7269897460938 453.9183959960938 564.3101196289063 453.9183959960938 C 563.6788940429688 453.9183959960938 563.0537719726563 454.0407104492188 562.4680786132813 454.2784423828125 L 561.5767211914063 454.6403198242188 C 560.9859008789063 454.8801879882813 560.3605346679688 455.0003967285156 559.7347412109375 455.0003967285156 C 559.1614379882813 455.0003967285156 558.5878295898438 454.8995056152344 558.0401000976563 454.697265625 L 556.7507934570313 454.2213745117188 C 556.20751953125 454.0208129882813 555.6336059570313 453.9183959960938 555.0557250976563 453.9183959960938 L 554.974365234375 453.9183959960938 C 553.5576171875 453.9183959960938 552.2088623046875 453.303466796875 551.2675170898438 452.2286376953125 L 550.3922119140625 451.2288818359375 C 550.0779418945313 450.870361328125 549.7149658203125 450.5592041015625 549.3137817382813 450.3045043945313 L 548.6748046875 449.899169921875 C 547.6533203125 449.2507934570313 546.8988647460938 448.2476806640625 546.5526733398438 447.0764770507813 L 546.1255493164063 445.6309204101563 C 546.0614624023438 445.4133911132813 545.9826049804688 445.2007446289063 545.8900756835938 444.994140625 L 545.1111450195313 443.2544555664063 C 544.5670776367188 442.0390625 544.5205688476563 440.6539306640625 544.9825439453125 439.4036254882813 L 545.0061645507813 439.3395385742188 C 545.2151489257813 438.7744140625 545.3219604492188 438.1759033203125 545.3219604492188 437.5720825195313 L 545.3219604492188 436.4284057617188 C 545.3219604492188 435.2088623046875 545.758056640625 434.031005859375 546.5489501953125 433.1134033203125 L 547.3021850585938 432.2392578125 C 547.6304321289063 431.8590087890625 547.8997192382813 431.4307250976563 548.1021118164063 430.96875 L 548.3552856445313 430.3905029296875 C 548.90234375 429.1410522460938 549.9265747070313 428.1712646484375 551.1924438476563 427.7039794921875 L 552.5406494140625 427.2063598632813 C 552.9127197265625 427.0691528320313 553.2673950195313 426.8869018554688 553.5966186523438 426.6636962890625 L 554.8057861328125 425.8458862304688 C 555.6231079101563 425.2925720214844 556.5811157226563 425.0004272460938 557.556640625 425.0004272460938 Z" stroke="none" fill="#fff"/>
    </g>
    <path id="路径_73" data-name="路径 73" d="M571.1,443.571h1.126a.654.654,0,0,1,.566.328l4.225,7.343c.006.01.012.021.018.032l1.387,2.759h.091c-.109-1.352-.272-2.936-.272-4.359v-5.448a.655.655,0,0,1,.654-.656h.687a.655.655,0,0,1,.653.656v11.785a.654.654,0,0,1-.653.655h-1.126a.653.653,0,0,1-.566-.329l-4.235-7.394-1.4-2.74h-.091c.109,1.352.272,2.865.272,4.288v5.519a.654.654,0,0,1-.653.655H571.1a.654.654,0,0,1-.654-.655V444.227A.655.655,0,0,1,571.1,443.571Z" transform="translate(-17.775 -12.57)" fill="#fff"/>
    <path id="路径_74" data-name="路径 74" d="M571.31,445.146H573a.574.574,0,0,1,.505.306l3.545,6.626c.006.011.012.023.017.035l1.272,2.8h.086c-.138-1.358-.329-3.087-.329-4.569v-4.616a.581.581,0,0,1,.575-.587h1.27a.581.581,0,0,1,.576.587v11.878a.582.582,0,0,1-.576.587h-1.675a.574.574,0,0,1-.506-.308l-3.53-6.662-.015-.029-1.29-2.79h-.086c.121,1.411.311,3.051.311,4.551v4.651a.581.581,0,0,1-.575.587h-1.27a.581.581,0,0,1-.576-.587V445.733A.581.581,0,0,1,571.31,445.146Z" transform="translate(-18.067 -14.145)" fill="#f4f7ff" opacity="0.36"/>
  </g>
</svg>
