<svg xmlns="http://www.w3.org/2000/svg" width="28" height="28" viewBox="0 0 28 28">
  <g id="nssLOGO-28" transform="translate(-541.667 -422)">
    <path id="路径_71" data-name="路径 71" d="M554.158,422.024l1.191.121a4.54,4.54,0,0,0,.921,0l1.19-.121a4.577,4.577,0,0,1,3.028.766l1.19.805a4.611,4.611,0,0,0,.849.453l1.106.449a4.66,4.66,0,0,1,2.511,2.454l.207.472a4.7,4.7,0,0,0,.957,1.414l.347.352a4.736,4.736,0,0,1,1.356,3.323v.775a4.76,4.76,0,0,0,.163,1.236l.331,1.232a4.762,4.762,0,0,1-.42,3.518l-.363.664a4.744,4.744,0,0,0-.508,1.441l-.132.735a4.7,4.7,0,0,1-2.306,3.267l-.367.207a4.638,4.638,0,0,0-1.212.986l-.736.84a4.6,4.6,0,0,1-3.46,1.577h0a4.569,4.569,0,0,0-1.719.336l-.832.338a4.564,4.564,0,0,1-3.3.053l-1.2-.444a4.572,4.572,0,0,0-1.582-.283h-.076a4.6,4.6,0,0,1-3.46-1.577l-.817-.933a4.657,4.657,0,0,0-1.006-.863l-.6-.379a4.689,4.689,0,0,1-1.98-2.634l-.4-1.349a4.728,4.728,0,0,0-.22-.594l-.727-1.624a4.765,4.765,0,0,1-.12-3.594l.022-.06a4.769,4.769,0,0,0,.295-1.65v-1.067a4.739,4.739,0,0,1,1.146-3.094l.7-.816a4.713,4.713,0,0,0,.746-1.186l.236-.54a4.656,4.656,0,0,1,2.648-2.507l1.258-.465a4.609,4.609,0,0,0,.986-.506l1.128-.763A4.578,4.578,0,0,1,554.158,422.024Z" transform="translate(0 0)" fill="#3d72e4"/>
    <g id="路径_72" data-name="路径 72" transform="translate(-2.021 -2.021)" fill="none" stroke-miterlimit="10">
      <path d="M556.285,425.022l1.107.112a4.226,4.226,0,0,0,.857,0l1.107-.112a4.257,4.257,0,0,1,2.817.712l1.107.749a4.3,4.3,0,0,0,.789.421l1.029.418a4.335,4.335,0,0,1,2.335,2.283l.192.439a4.371,4.371,0,0,0,.89,1.315l.322.327a4.4,4.4,0,0,1,1.261,3.09v.72a4.441,4.441,0,0,0,.152,1.15l.308,1.146a4.43,4.43,0,0,1-.39,3.272l-.338.618a4.416,4.416,0,0,0-.472,1.341l-.122.683a4.368,4.368,0,0,1-2.145,3.038l-.342.193a4.321,4.321,0,0,0-1.127.917l-.684.782a4.277,4.277,0,0,1-3.218,1.467h0a4.251,4.251,0,0,0-1.6.313l-.774.314a4.245,4.245,0,0,1-3.07.049l-1.119-.413a4.248,4.248,0,0,0-1.471-.263h-.071a4.278,4.278,0,0,1-3.218-1.467l-.76-.868a4.334,4.334,0,0,0-.936-.8l-.555-.352a4.365,4.365,0,0,1-1.842-2.45l-.371-1.255a4.38,4.38,0,0,0-.2-.553l-.676-1.51a4.431,4.431,0,0,1-.112-3.343l.021-.056a4.424,4.424,0,0,0,.274-1.534v-.993a4.409,4.409,0,0,1,1.065-2.878l.654-.759a4.373,4.373,0,0,0,.694-1.1l.22-.5a4.332,4.332,0,0,1,2.463-2.332l1.17-.432a4.259,4.259,0,0,0,.917-.471l1.05-.71A4.255,4.255,0,0,1,556.285,425.022Z" stroke="none"/>
      <path d="M 555.856201171875 425.5004272460938 C 555.1034545898438 425.5004272460938 554.3746337890625 425.7244873046875 553.748291015625 426.1485290527344 L 552.6991577148438 426.8580932617188 C 552.380126953125 427.0744018554688 552.0354614257813 427.2514953613281 551.675048828125 427.3843994140625 L 550.5046997070313 427.8163452148438 C 549.53857421875 428.1729736328125 548.7447509765625 428.9251098632813 548.3267211914063 429.8799133300781 L 548.1068725585938 430.3820190429688 C 547.9105834960938 430.8299865722656 547.6502685546875 431.2434387207031 547.3333129882813 431.6106262207031 L 546.6793823242188 432.3695068359375 C 546.0707397460938 433.0756225585938 545.7355346679688 433.9816589355469 545.7355346679688 434.9207153320313 L 545.7355346679688 435.9135131835938 C 545.7355346679688 436.4990539550781 545.6328735351563 437.0736083984375 545.4306030273438 437.6206970214844 L 545.409912109375 437.6767578125 C 545.0516967773438 438.6460876464844 545.0868530273438 439.6991271972656 545.5089111328125 440.6419067382813 L 546.18505859375 442.1520385742188 C 546.2748413085938 442.3525085449219 546.3514404296875 442.5597229003906 546.41259765625 442.7674865722656 L 546.7833862304688 444.0222778320313 C 547.0496826171875 444.923095703125 547.6287841796875 445.6937255859375 548.4138793945313 446.1921081542969 L 548.96875 446.5440368652344 C 549.357177734375 446.7906494140625 549.70849609375 447.0917358398438 550.0131225585938 447.4392395019531 L 550.7728881835938 448.3070373535156 C 551.494384765625 449.1308288574219 552.5301513671875 449.6033020019531 553.6145629882813 449.6033020019531 L 553.6851806640625 449.6033020019531 C 554.2481689453125 449.6033020019531 554.801513671875 449.7022094726563 555.3297729492188 449.897216796875 L 556.4490356445313 450.3103637695313 C 556.8662719726563 450.4644470214844 557.3029174804688 450.5425720214844 557.7468872070313 450.5425720214844 C 558.2322387695313 450.5425720214844 558.7069091796875 450.4497375488281 559.1577758789063 450.2666625976563 L 559.931640625 449.9524841308594 C 560.5025634765625 449.7207946777344 561.1038208007813 449.6033020019531 561.7186889648438 449.6033020019531 C 562.8031616210938 449.6033020019531 563.8389282226563 449.1308288574219 564.560302734375 448.3071594238281 L 565.2446899414063 447.5253601074219 C 565.60498046875 447.1141052246094 566.0280151367188 446.7700500488281 566.5018310546875 446.5027770996094 L 566.8435668945313 446.3099060058594 C 567.8448486328125 445.7452697753906 568.5369262695313 444.7643737792969 568.7423095703125 443.6191101074219 L 568.8643798828125 442.9357299804688 C 568.95849609375 442.4111022949219 569.135498046875 441.9090270996094 569.3902587890625 441.4435424804688 L 569.728515625 440.8253479003906 C 570.2153930664063 439.9360046386719 570.3382568359375 438.9052124023438 570.0745849609375 437.9230041503906 L 569.766357421875 436.7767639160156 C 569.6544799804688 436.3593139648438 569.5977172851563 435.9289245605469 569.5977172851563 435.49755859375 L 569.5977172851563 434.7771301269531 C 569.5977172851563 433.7571411132813 569.1904907226563 432.7588500976563 568.48046875 432.0381164550781 L 568.158203125 431.7109985351563 C 567.73974609375 431.2861022949219 567.406005859375 430.7929077148438 567.1663818359375 430.2452087402344 L 566.9739379882813 429.8057250976563 C 566.5681762695313 428.8791809082031 565.834716796875 428.1618347167969 564.9085083007813 427.7858276367188 L 563.8795776367188 427.3680419921875 C 563.5706787109375 427.2424011230469 563.2742919921875 427.0840759277344 562.99853515625 426.8974914550781 L 561.8919677734375 426.1484680175781 C 561.2652587890625 425.7245178222656 560.5362548828125 425.5004272460938 559.7838134765625 425.5004272460938 C 559.658203125 425.5004272460938 559.5310668945313 425.5068664550781 559.4060668945313 425.5195617675781 L 558.2991333007813 425.6318359375 C 558.140625 425.6479797363281 557.9794921875 425.6561584472656 557.820068359375 425.6561584472656 C 557.6607055664063 425.6561584472656 557.49951171875 425.6479797363281 557.3412475585938 425.6318359375 L 556.2340698242188 425.5195617675781 C 556.1090698242188 425.5068664550781 555.9818725585938 425.5004272460938 555.856201171875 425.5004272460938 M 555.856201171875 425.0004272460938 C 555.998779296875 425.0004272460938 556.1416015625 425.0075988769531 556.2845458984375 425.0220947265625 L 557.3917236328125 425.1343994140625 C 557.5341186523438 425.1488952636719 557.6771240234375 425.1561584472656 557.820068359375 425.1561584472656 C 557.9630737304688 425.1561584472656 558.1060180664063 425.1488952636719 558.2484741210938 425.1343994140625 L 559.3555908203125 425.0220947265625 C 559.4984130859375 425.0075988769531 559.641357421875 425.0004272460938 559.7838134765625 425.0004272460938 C 560.6304931640625 425.0004272460938 561.4620971679688 425.2539978027344 562.172119140625 425.7343444824219 L 563.27880859375 426.4834289550781 C 563.5270385742188 426.6513977050781 563.791259765625 426.7923278808594 564.0679931640625 426.9049072265625 L 565.0966186523438 427.3225708007813 C 566.13818359375 427.7454223632813 566.9761962890625 428.5644226074219 567.4319458007813 429.6051635742188 L 567.6243896484375 430.0446472167969 C 567.8389282226563 430.5349426269531 568.140625 430.9805603027344 568.5144653320313 431.3601379394531 L 568.836669921875 431.687255859375 C 569.6439208984375 432.5066223144531 570.0977172851563 433.6181945800781 570.0977172851563 434.7771301269531 L 570.0977172851563 435.49755859375 C 570.0977172851563 435.8858947753906 570.1488647460938 436.2725524902344 570.2493286132813 436.6473083496094 L 570.5574340820313 437.7931823730469 C 570.8529052734375 438.893798828125 570.7129516601563 440.0683288574219 570.1671142578125 441.0654296875 L 569.8289184570313 441.6835327148438 C 569.6002807617188 442.1012268066406 569.4408569335938 442.5540161132813 569.3565063476563 443.0240478515625 L 569.2344970703125 443.70703125 C 569.0036010742188 444.9947204589844 568.2164916992188 446.1097106933594 567.0891723632813 446.7454223632813 L 566.7476196289063 446.9382019042969 C 566.3239135742188 447.1771850585938 565.9429931640625 447.487060546875 565.6207275390625 447.8548583984375 L 564.9365234375 448.636474609375 C 564.1194458007813 449.5694580078125 562.9486083984375 450.1033020019531 561.7186889648438 450.1033020019531 C 561.1707153320313 450.1033020019531 560.6280517578125 450.20947265625 560.11962890625 450.4158020019531 L 559.3458862304688 450.7299499511719 C 558.8330078125 450.9382019042969 558.2901000976563 451.0425720214844 557.7468872070313 451.0425720214844 C 557.2492065429688 451.0425720214844 556.7512817382813 450.9549865722656 556.2758178710938 450.7794189453125 L 555.1566162109375 450.3663024902344 C 554.6849975585938 450.1921691894531 554.1868286132813 450.1033020019531 553.6851806640625 450.1033020019531 L 553.6145629882813 450.1033020019531 C 552.3847045898438 450.1033020019531 551.2138671875 449.5694580078125 550.396728515625 448.636474609375 L 549.6369018554688 447.7685852050781 C 549.3640747070313 447.4573669433594 549.0490112304688 447.187255859375 548.7007446289063 446.9661560058594 L 548.1460571289063 446.6143188476563 C 547.2593383789063 446.0514526367188 546.6044311523438 445.1806945800781 546.3038940429688 444.1640319824219 L 545.93310546875 442.9091796875 C 545.8775024414063 442.7203674316406 545.8090209960938 442.5357360839844 545.7286987304688 442.3563842773438 L 545.0525512695313 440.8462219238281 C 544.5802612304688 439.7911682128906 544.5398559570313 438.5887756347656 544.94091796875 437.5034484863281 L 544.96142578125 437.4478149414063 C 545.142822265625 436.9572143554688 545.2355346679688 436.4376831054688 545.2355346679688 435.9135131835938 L 545.2355346679688 434.9207153320313 C 545.2355346679688 433.8620910644531 545.6140747070313 432.839599609375 546.3006591796875 432.0430603027344 L 546.9545288085938 431.2842407226563 C 547.2394409179688 430.9541625976563 547.4732055664063 430.5823669433594 547.64892578125 430.1813354492188 L 547.8687133789063 429.6793823242188 C 548.3435668945313 428.5947875976563 549.232666015625 427.7529296875 550.33154296875 427.3472900390625 L 551.5018920898438 426.9153137207031 C 551.8248901367188 426.7962341308594 552.1327514648438 426.6380310058594 552.4185791015625 426.4442443847656 L 553.4682006835938 425.7343444824219 C 554.1776733398438 425.2540283203125 555.0093994140625 425.0004272460938 555.856201171875 425.0004272460938 Z" stroke="none" fill="#fff"/>
    </g>
    <path id="路径_73" data-name="路径 73" d="M571.1,443.571h1.126a.654.654,0,0,1,.566.328l4.225,7.343c.006.01.012.021.018.032l1.387,2.759h.091c-.109-1.352-.272-2.936-.272-4.359v-5.448a.655.655,0,0,1,.654-.656h.687a.655.655,0,0,1,.653.656v11.785a.654.654,0,0,1-.653.655h-1.126a.653.653,0,0,1-.566-.329l-4.235-7.394-1.4-2.74h-.091c.109,1.352.272,2.865.272,4.288v5.519a.654.654,0,0,1-.653.655H571.1a.654.654,0,0,1-.654-.655V444.227A.655.655,0,0,1,571.1,443.571Z" transform="translate(-19.417 -14.582)" fill="#fff"/>
    <path id="路径_74" data-name="路径 74" d="M571.31,445.146H573a.574.574,0,0,1,.505.306l3.545,6.626c.006.011.012.023.017.035l1.272,2.8h.086c-.138-1.358-.329-3.087-.329-4.569v-4.616a.581.581,0,0,1,.575-.587h1.27a.581.581,0,0,1,.576.587v11.878a.582.582,0,0,1-.576.587h-1.675a.574.574,0,0,1-.506-.308l-3.53-6.662-.015-.029-1.29-2.79h-.086c.121,1.411.311,3.051.311,4.551v4.651a.581.581,0,0,1-.575.587h-1.27a.581.581,0,0,1-.576-.587V445.733A.581.581,0,0,1,571.31,445.146Z" transform="translate(-19.614 -15.624)" fill="#f4f7ff" opacity="0.36"/>
  </g>
</svg>
